<svg width="176" height="51" viewBox="0 0 176 51" fill="none" xmlns="http://www.w3.org/2000/svg">
<path d="M14.112 3.136C12.5547 2.47467 11.008 2.144 9.472 2.144C6.35733 2.144 4.8 3.296 4.8 5.6C4.8 6.60267 5.152 7.54133 5.856 8.416C6.56 9.26933 7.41333 10.0373 8.416 10.72C9.41867 11.3813 10.4213 12.064 11.424 12.768C12.4267 13.472 13.28 14.3147 13.984 15.296C14.688 16.2773 15.04 17.344 15.04 18.496C15.04 20.4373 14.3893 21.9093 13.088 22.912C11.7867 23.8933 9.984 24.384 7.68 24.384C5.39733 24.384 3.44533 23.7973 1.824 22.624L2.592 21.472C4.128 22.4747 5.81333 22.976 7.648 22.976C9.48267 22.976 10.8907 22.6133 11.872 21.888C12.8533 21.1413 13.344 20.0747 13.344 18.688C13.344 17.728 12.992 16.8213 12.288 15.968C11.584 15.0933 10.7307 14.3147 9.728 13.632C8.72533 12.928 7.72267 12.2133 6.72 11.488C5.71733 10.7627 4.864 9.89867 4.16 8.896C3.456 7.89333 3.104 6.816 3.104 5.664C3.104 4.14933 3.65867 2.95466 4.768 2.08C5.89867 1.184 7.41333 0.735998 9.312 0.735998C11.232 0.735998 13.0133 1.12 14.656 1.888L14.112 3.136ZM30.972 22.912H30.108L24.06 8.224C23.804 7.648 23.548 6.976 23.292 6.208C23.292 6.22933 23.2707 6.34667 23.228 6.56C23.2067 6.77333 23.1747 7.06133 23.132 7.424C23.0893 7.76533 23.0467 8.05333 23.004 8.288L20.604 24H19.164L22.556 3.104H23.42L29.884 18.432C30.396 19.712 30.652 20.384 30.652 20.448C30.8013 20 31.0893 19.3387 31.516 18.464L38.716 3.104H39.58L42.748 24H41.212L38.94 8.224C38.7907 7.17867 38.716 6.48533 38.716 6.144L37.788 8.256L30.972 22.912ZM49.2703 16.8L46.2943 24H44.7903L53.4943 3.104H54.3583L63.1263 24H61.4943L58.4863 16.8H49.2703ZM53.8463 5.472C53.5263 6.432 53.2383 7.232 52.9823 7.872L49.7823 15.552H57.9743L54.8063 7.904C54.3156 6.70933 53.9956 5.89867 53.8463 5.472ZM67.34 24V3.328C69.1747 3.17867 70.732 3.104 72.012 3.104C73.9747 3.104 75.596 3.616 76.876 4.64C78.156 5.64267 78.796 7.08267 78.796 8.96C78.796 10.2187 78.4333 11.3813 77.708 12.448C76.9827 13.5147 76.1613 14.3787 75.244 15.04C77.7827 18.4107 79.3507 20.4267 79.948 21.088C81.164 22.3467 82.4867 23.0613 83.916 23.232L83.884 24.224C82.6893 24.2027 81.7187 24.032 80.972 23.712C80.2253 23.3707 79.4787 22.8053 78.732 22.016C78.0067 21.2267 76.396 19.104 73.9 15.648C72.172 15.648 70.476 15.5947 68.812 15.488V24H67.34ZM73.1 14.432C73.932 14.432 74.828 13.8773 75.788 12.768C76.748 11.6587 77.228 10.368 77.228 8.896C77.228 7.424 76.7267 6.304 75.724 5.536C74.7213 4.768 73.42 4.384 71.82 4.384C70.9667 4.384 69.964 4.42667 68.812 4.512V14.272C70.348 14.3787 71.7773 14.432 73.1 14.432ZM99.4167 3.232L90.5528 13.248C94.0514 17.4933 96.4408 20.1813 97.7208 21.312C99.0221 22.4427 100.313 23.0827 101.593 23.232L101.561 24.224C100.366 24.2027 99.3954 24.032 98.6488 23.712C97.9021 23.3707 97.2408 22.9227 96.6648 22.368C96.0888 21.8133 94.8514 20.4587 92.9528 18.304C91.0754 16.128 89.6674 14.464 88.7288 13.312L97.6568 3.232H99.4167ZM88.2808 3.232V24H86.8088V3.232H88.2808ZM104.934 24V3.232H106.406V24H104.934ZM117.802 4.544H110.762V3.232H126.282V4.544H119.242V24H117.802V4.544ZM129.677 16.8L126.701 24H125.197L133.901 3.104H134.765L143.533 24H141.901L138.893 16.8H129.677ZM134.253 5.472C133.933 6.432 133.645 7.232 133.389 7.872L130.189 15.552H138.381L135.213 7.904C134.722 6.70933 134.402 5.89867 134.253 5.472ZM147.746 24V3.232H149.218V22.656H158.754V24H147.746ZM167.313 4.128C166.161 4.128 165.223 4.40533 164.497 4.96C163.772 5.51467 163.409 6.29333 163.409 7.296C163.409 8.448 163.889 9.48267 164.849 10.4C165.532 11.0613 166.407 11.7653 167.473 12.512C168.561 13.2373 169.308 13.76 169.713 14.08C170.119 14.4 170.609 14.8373 171.185 15.392C172.231 16.4373 172.753 17.6427 172.753 19.008C172.753 20.7787 172.156 22.1227 170.961 23.04C169.788 23.936 168.135 24.384 166.001 24.384C163.889 24.384 162.119 23.8293 160.689 22.72L161.457 21.6C162.908 22.5813 164.444 23.072 166.065 23.072C167.687 23.072 168.945 22.7307 169.841 22.048C170.759 21.3653 171.217 20.4053 171.217 19.168C171.217 18.1013 170.759 17.12 169.841 16.224C169.201 15.584 168.337 14.8907 167.249 14.144C166.183 13.3973 165.436 12.864 165.009 12.544C164.583 12.2027 164.081 11.7547 163.505 11.2C162.417 10.112 161.873 8.85333 161.873 7.424C161.873 5.99467 162.375 4.87467 163.377 4.064C164.401 3.25333 165.809 2.848 167.601 2.848C169.393 2.848 171.004 3.2 172.433 3.904L171.889 5.088C170.567 4.448 169.041 4.128 167.313 4.128ZM6.336 33.848H0.528V32.84H13.296V33.848H7.488V50H6.336V33.848ZM15.9581 50V34.424H23.2301V35.384H17.0621V41.048H22.6301V41.984H17.0621V48.992H23.4701V50H15.9581ZM40.0078 49.232C38.8078 49.904 37.1358 50.24 34.9918 50.24C32.8638 50.24 30.9838 49.472 29.3518 47.936C27.7358 46.4 26.9278 44.496 26.9278 42.224C26.9278 39.936 27.6318 38.024 29.0398 36.488C30.4638 34.952 32.2958 34.184 34.5358 34.184C36.3438 34.184 38.1118 34.464 39.8398 35.024L39.5518 35.936C37.8878 35.424 36.1678 35.168 34.3918 35.168C32.6158 35.168 31.1198 35.848 29.9038 37.208C28.7038 38.552 28.1038 40.208 28.1038 42.176C28.1038 44.128 28.7998 45.792 30.1918 47.168C31.5998 48.544 33.2238 49.232 35.0638 49.232C36.9038 49.232 38.4318 48.976 39.6478 48.464L40.0078 49.232ZM55.8705 50V42.128H45.0465V50H43.9425V34.424H45.0465V41.144H55.8705V34.424H56.9745V50H55.8705ZM62.7394 50V34.328H63.2674L73.4914 46.088C73.8594 46.504 74.1954 46.92 74.4994 47.336C74.8194 47.736 74.9874 47.944 75.0034 47.96C74.9714 47.576 74.9554 46.824 74.9554 45.704V34.424H76.0594V50.096H75.5314L65.1154 38.144L63.7954 36.536C63.8274 36.856 63.8434 37.608 63.8434 38.792V50H62.7394ZM88.7055 50.24C86.4815 50.24 84.6175 49.464 83.1135 47.912C81.6095 46.36 80.8575 44.464 80.8575 42.224C80.8575 39.968 81.6095 38.064 83.1135 36.512C84.6175 34.96 86.4815 34.184 88.7055 34.184C90.9295 34.184 92.7935 34.96 94.2975 36.512C95.8015 38.064 96.5535 39.968 96.5535 42.224C96.5535 44.464 95.8015 46.36 94.2975 47.912C92.7935 49.464 90.9295 50.24 88.7055 50.24ZM88.7055 35.168C86.7855 35.168 85.1855 35.848 83.9055 37.208C82.6415 38.568 82.0095 40.24 82.0095 42.224C82.0095 44.192 82.6415 45.856 83.9055 47.216C85.1855 48.56 86.7855 49.232 88.7055 49.232C90.6415 49.232 92.2415 48.56 93.5055 47.216C94.7695 45.856 95.4015 44.192 95.4015 42.224C95.4015 40.24 94.7695 38.568 93.5055 37.208C92.2415 35.848 90.6415 35.168 88.7055 35.168ZM101.364 50V34.424H102.468V48.992H109.62V50H101.364ZM118.823 50.24C116.599 50.24 114.735 49.464 113.231 47.912C111.727 46.36 110.975 44.464 110.975 42.224C110.975 39.968 111.727 38.064 113.231 36.512C114.735 34.96 116.599 34.184 118.823 34.184C121.047 34.184 122.911 34.96 124.415 36.512C125.919 38.064 126.671 39.968 126.671 42.224C126.671 44.464 125.919 46.36 124.415 47.912C122.911 49.464 121.047 50.24 118.823 50.24ZM118.823 35.168C116.903 35.168 115.303 35.848 114.023 37.208C112.759 38.568 112.127 40.24 112.127 42.224C112.127 44.192 112.759 45.856 114.023 47.216C115.303 48.56 116.903 49.232 118.823 49.232C120.759 49.232 122.359 48.56 123.623 47.216C124.887 45.856 125.519 44.192 125.519 42.224C125.519 40.24 124.887 38.568 123.623 37.208C122.359 35.848 120.759 35.168 118.823 35.168ZM137.986 35.168C136.21 35.168 134.714 35.848 133.498 37.208C132.298 38.552 131.698 40.208 131.698 42.176C131.698 44.144 132.378 45.816 133.738 47.192C135.098 48.552 136.698 49.232 138.538 49.232C140.394 49.232 141.834 49.016 142.858 48.584V42.176H143.962V49.088C142.714 49.856 140.946 50.24 138.658 50.24C136.37 50.24 134.442 49.464 132.874 47.912C131.306 46.36 130.522 44.456 130.522 42.2C130.522 39.928 131.226 38.024 132.634 36.488C134.058 34.952 135.89 34.184 138.13 34.184C139.938 34.184 141.706 34.464 143.434 35.024L143.146 35.936C141.482 35.424 139.762 35.168 137.986 35.168ZM149.2 50V34.424H150.304V50H149.2ZM156.068 50V34.424H163.34V35.384H157.172V41.048H162.74V41.984H157.172V48.992H163.58V50H156.068ZM171.141 35.096C170.277 35.096 169.573 35.304 169.029 35.72C168.485 36.136 168.213 36.72 168.213 37.472C168.213 38.336 168.573 39.112 169.293 39.8C169.805 40.296 170.461 40.824 171.261 41.384C172.077 41.928 172.637 42.32 172.941 42.56C173.245 42.8 173.613 43.128 174.045 43.544C174.829 44.328 175.221 45.232 175.221 46.256C175.221 47.584 174.773 48.592 173.877 49.28C172.997 49.952 171.757 50.288 170.157 50.288C168.573 50.288 167.245 49.872 166.173 49.04L166.749 48.2C167.837 48.936 168.989 49.304 170.205 49.304C171.421 49.304 172.365 49.048 173.037 48.536C173.725 48.024 174.069 47.304 174.069 46.376C174.069 45.576 173.725 44.84 173.037 44.168C172.557 43.688 171.909 43.168 171.093 42.608C170.293 42.048 169.733 41.648 169.413 41.408C169.093 41.152 168.717 40.816 168.285 40.4C167.469 39.584 167.061 38.64 167.061 37.568C167.061 36.496 167.437 35.656 168.189 35.048C168.957 34.44 170.013 34.136 171.357 34.136C172.701 34.136 173.909 34.4 174.981 34.928L174.573 35.816C173.581 35.336 172.437 35.096 171.141 35.096Z" fill="black"/>
</svg>
